<?xml version="1.0" encoding="utf-8"?>
<!-- Generator: Adobe Illustrator 23.0.0, SVG Export Plug-In . SVG Version: 6.00 Build 0)  -->
<svg version="1.1" id="Layer_1" xmlns="http://www.w3.org/2000/svg" xmlns:xlink="http://www.w3.org/1999/xlink" x="0px" y="0px"
	 width="500px" height="100px" viewBox="0 0 500 100" style="enable-background:new 0 0 500 100;" xml:space="preserve">
<style type="text/css">
	.st0{fill:#EC1C24;}
	.st1{fill:#0752A4;}
	.st2{fill:#F9D602;}
	.st3{enable-background:new    ;}
	.st4{fill:#FFFFFF;}
</style>
<g>
	<g>
		<path class="st0" d="M157.19,36.05C157.17,56,141.28,72.04,121.6,71.99c-19.7-0.05-35.49-16.12-35.46-36.07
			C86.18,15.94,102.01-0.03,121.73,0S157.22,16.08,157.19,36.05z"/>
		<path class="st1" d="M59.33,24.05c13.06,0.01,23.52,10.64,23.5,23.88C82.82,61.1,72.22,71.82,59.25,71.8s-23.52-10.78-23.5-23.95
			C35.77,34.62,46.26,24.03,59.33,24.05z"/>
		<path class="st2" d="M15.65,70.95C6.86,70.93,0.01,64.18,0,55.52c0-8.75,6.94-15.48,15.9-15.43c8.75,0.06,15.58,6.89,15.53,15.55
			C31.36,64.29,24.47,70.97,15.65,70.95z"/>
		<g class="st3">
			<path class="st4" d="M31.38,99.12v0.48h-9.2v-0.48h0.58c0.51,0,0.92-0.09,1.23-0.27c0.23-0.12,0.4-0.33,0.52-0.62
				c0.1-0.21,0.14-0.75,0.14-1.64V85.01c0-0.9-0.05-1.46-0.14-1.69c-0.1-0.22-0.29-0.42-0.58-0.59c-0.29-0.17-0.68-0.25-1.17-0.25
				h-0.58V82h9.2v0.48H30.8c-0.51,0-0.92,0.09-1.23,0.27c-0.22,0.12-0.4,0.33-0.53,0.62c-0.1,0.21-0.14,0.75-0.14,1.64v11.58
				c0,0.9,0.05,1.46,0.15,1.69s0.29,0.42,0.58,0.59c0.29,0.17,0.68,0.25,1.17,0.25H31.38z"/>
			<path class="st4" d="M42.73,83.01v7.23h0.51c0.78,0,1.41-0.12,1.91-0.35c0.49-0.23,0.91-0.63,1.25-1.18s0.56-1.3,0.67-2.25h0.45
				v8.84h-0.45c-0.16-1.67-0.61-2.77-1.34-3.3c-0.73-0.53-1.56-0.8-2.49-0.8h-0.51v5.39c0,0.9,0.05,1.46,0.15,1.69
				c0.1,0.23,0.29,0.42,0.58,0.59s0.68,0.25,1.17,0.25h0.58v0.48h-9.2v-0.48h0.58c0.51,0,0.92-0.09,1.23-0.27
				c0.22-0.12,0.4-0.33,0.52-0.62c0.1-0.21,0.14-0.75,0.14-1.64V85.01c0-0.9-0.05-1.46-0.14-1.69c-0.1-0.22-0.29-0.42-0.58-0.59
				s-0.68-0.25-1.18-0.25H36V82h14.85v5.05h-0.53c-0.12-1.18-0.43-2.06-0.93-2.63s-1.22-0.97-2.16-1.21
				c-0.52-0.13-1.48-0.19-2.88-0.19h-1.62V83.01z"/>
			<path class="st4" d="M64.82,99.12v0.48h-9.2v-0.48h0.58c0.51,0,0.92-0.09,1.23-0.27c0.23-0.12,0.4-0.33,0.52-0.62
				c0.1-0.21,0.14-0.75,0.14-1.64V85.01c0-0.9-0.05-1.46-0.14-1.69c-0.1-0.22-0.29-0.42-0.58-0.59s-0.68-0.25-1.17-0.25h-0.58V82
				h9.2v0.48h-0.58c-0.51,0-0.92,0.09-1.23,0.27c-0.22,0.12-0.4,0.33-0.53,0.62c-0.1,0.21-0.14,0.75-0.14,1.64v11.58
				c0,0.9,0.05,1.46,0.15,1.69c0.1,0.23,0.29,0.42,0.58,0.59s0.68,0.25,1.17,0.25H64.82z"/>
			<path class="st4" d="M75.48,82l8.68,10.92v-7.57c0-1.06-0.15-1.77-0.45-2.14c-0.42-0.5-1.11-0.74-2.09-0.73V82h5.81v0.48
				c-0.74,0.1-1.24,0.22-1.5,0.37s-0.45,0.4-0.6,0.74c-0.14,0.34-0.21,0.93-0.21,1.76V100h-0.44l-11.9-14.65v11.19
				c0,1.01,0.23,1.7,0.69,2.05c0.46,0.35,0.99,0.53,1.59,0.53h0.42v0.48h-6.24v-0.48c0.97-0.01,1.64-0.21,2.02-0.6
				s0.57-1.05,0.57-1.99V84.11l-0.38-0.47c-0.37-0.47-0.7-0.77-0.99-0.92s-0.7-0.23-1.23-0.25V82H75.48z"/>
			<path class="st4" d="M91.84,99.6v-0.48h0.58c0.51,0,0.9-0.08,1.17-0.24c0.27-0.16,0.47-0.38,0.6-0.66
				c0.08-0.18,0.12-0.73,0.12-1.64V85.01c0-0.9-0.05-1.46-0.14-1.69c-0.1-0.22-0.29-0.42-0.58-0.59s-0.68-0.25-1.17-0.25h-0.58V82
				h7.88c2.1,0,3.79,0.29,5.08,0.86c1.57,0.7,2.75,1.76,3.56,3.18s1.21,3.02,1.21,4.82c0,1.24-0.2,2.38-0.6,3.42
				s-0.91,1.9-1.54,2.58s-1.36,1.22-2.19,1.64c-0.83,0.41-1.84,0.73-3.03,0.95c-0.53,0.1-1.36,0.16-2.49,0.16h-7.88V99.6z M98.55,83
				v13.73c0,0.73,0.03,1.17,0.1,1.34c0.07,0.16,0.19,0.29,0.35,0.38c0.23,0.13,0.57,0.19,1.01,0.19c1.44,0,2.55-0.49,3.31-1.48
				c1.04-1.33,1.56-3.4,1.56-6.2c0-2.26-0.35-4.06-1.06-5.41c-0.56-1.06-1.29-1.77-2.17-2.15C101.03,83.12,99.99,82.99,98.55,83z"/>
			<path class="st4" d="M124.38,81.75c2.8-0.1,5.08,0.71,6.83,2.45s2.63,3.92,2.63,6.53c0,2.23-0.65,4.2-1.96,5.89
				c-1.73,2.25-4.18,3.37-7.33,3.37c-3.17,0-5.62-1.07-7.35-3.22c-1.37-1.7-2.05-3.71-2.05-6.04c0-2.61,0.89-4.79,2.67-6.54
				C119.6,82.47,121.78,81.65,124.38,81.75z M124.54,82.58c-1.61,0-2.83,0.82-3.67,2.47c-0.68,1.35-1.02,3.29-1.02,5.82
				c0,3,0.53,5.22,1.58,6.66c0.74,1,1.77,1.51,3.09,1.51c0.89,0,1.64-0.22,2.23-0.65c0.76-0.55,1.35-1.44,1.78-2.65
				c0.42-1.22,0.64-2.8,0.64-4.76c0-2.33-0.22-4.07-0.65-5.22s-0.98-1.97-1.65-2.45S125.41,82.58,124.54,82.58z"/>
		</g>
	</g>
	<g>
		<g class="st3">
			<path class="st4" d="M174.4,34.21v4.9c0,0.95,0.05,1.55,0.17,1.8c0.12,0.25,0.32,0.44,0.63,0.59c0.3,0.15,0.85,0.22,1.65,0.22
				v0.49h-8.96v-0.49c0.82,0,1.37-0.08,1.66-0.23c0.29-0.15,0.5-0.35,0.61-0.59c0.12-0.25,0.17-0.84,0.17-1.79V27.66
				c0-0.95-0.05-1.55-0.17-1.8c-0.12-0.25-0.32-0.44-0.61-0.59s-0.84-0.22-1.65-0.22v-0.49h7.69c2.53,0,4.35,0.45,5.45,1.35
				c1.1,0.89,1.65,2.03,1.65,3.39c0,1.14-0.36,2.12-1.07,2.94c-0.71,0.82-1.69,1.37-2.94,1.66
				C177.83,34.12,176.41,34.21,174.4,34.21z M174.4,25.58v7.62c0.28,0.02,0.51,0.02,0.65,0.02c1.06,0,1.88-0.31,2.45-0.94
				c0.57-0.63,0.86-1.61,0.86-2.92c0-1.3-0.29-2.26-0.86-2.88c-0.57-0.6-1.42-0.91-2.57-0.91L174.4,25.58z"/>
			<path class="st4" d="M200.29,24.56v4.78h-0.46c-0.28-1.1-0.58-1.89-0.93-2.37c-0.33-0.49-0.8-0.86-1.39-1.15
				c-0.33-0.15-0.91-0.24-1.73-0.24h-1.32v13.61c0,0.91,0.05,1.47,0.15,1.69c0.1,0.23,0.29,0.42,0.58,0.59
				c0.29,0.17,0.69,0.26,1.19,0.26h0.58v0.49h-9.23v-0.49h0.58c0.51,0,0.93-0.09,1.24-0.27c0.23-0.12,0.4-0.33,0.53-0.63
				c0.1-0.2,0.14-0.75,0.14-1.64V25.58h-1.27c-1.19,0-2.05,0.25-2.59,0.75c-0.75,0.7-1.23,1.7-1.43,3.01h-0.5v-4.78H200.29z"/>
			<path class="st4" d="M202.6,38.19c0.6,0,1.12,0.22,1.54,0.64s0.63,0.94,0.63,1.53c0,0.6-0.22,1.11-0.64,1.53
				c-0.42,0.42-0.94,0.64-1.53,0.64s-1.11-0.22-1.53-0.64c-0.42-0.42-0.64-0.93-0.64-1.53c0-0.59,0.2-1.11,0.64-1.53
				S202.01,38.19,202.6,38.19z"/>
			<path class="st4" d="M215.69,41.72v0.49h-9.22v-0.49h0.58c0.51,0,0.93-0.09,1.24-0.27c0.23-0.12,0.4-0.33,0.52-0.63
				c0.1-0.2,0.14-0.75,0.14-1.64v-11.6c0-0.91-0.04-1.47-0.14-1.69c-0.1-0.23-0.29-0.42-0.58-0.59c-0.29-0.17-0.68-0.26-1.18-0.26
				h-0.58v-0.49h9.22v0.49h-0.58c-0.51,0-0.93,0.09-1.24,0.27c-0.23,0.12-0.4,0.33-0.53,0.63c-0.1,0.2-0.14,0.75-0.14,1.64v11.6
				c0,0.91,0.05,1.47,0.15,1.69c0.1,0.23,0.29,0.42,0.58,0.59c0.29,0.17,0.68,0.26,1.18,0.26H215.69z"/>
			<path class="st4" d="M222.93,24.56l8.7,10.93v-7.58c0-1.06-0.15-1.77-0.45-2.15c-0.42-0.51-1.11-0.74-2.09-0.73v-0.49h5.82v0.49
				c-0.74,0.1-1.25,0.22-1.5,0.37c-0.26,0.15-0.45,0.4-0.59,0.74s-0.22,0.93-0.22,1.76v14.69h-0.44l-11.93-14.69v11.21
				c0,1.01,0.24,1.7,0.7,2.06c0.46,0.36,0.99,0.53,1.6,0.53h0.42v0.49h-6.25v-0.49c0.97-0.01,1.65-0.2,2.03-0.59
				c0.38-0.39,0.57-1.06,0.57-1.99V26.69l-0.38-0.46c-0.38-0.46-0.7-0.78-0.99-0.93c-0.29-0.15-0.7-0.23-1.24-0.25v-0.49
				L222.93,24.56z"/>
			<path class="st4" d="M235.88,42.2v-0.49h0.58c0.51,0,0.91-0.08,1.18-0.24c0.27-0.16,0.47-0.38,0.6-0.66
				c0.08-0.18,0.12-0.73,0.12-1.64v-11.6c0-0.91-0.04-1.47-0.14-1.69c-0.1-0.23-0.29-0.42-0.58-0.59c-0.29-0.17-0.68-0.26-1.18-0.26
				h-0.58v-0.49h7.89c2.1,0,3.81,0.29,5.09,0.86c1.57,0.7,2.76,1.77,3.57,3.18c0.81,1.42,1.22,3.03,1.22,4.83
				c0,1.24-0.2,2.38-0.6,3.43c-0.4,1.05-0.92,1.91-1.55,2.59c-0.64,0.68-1.36,1.23-2.19,1.64c-0.83,0.41-1.84,0.73-3.04,0.96
				c-0.53,0.11-1.36,0.15-2.5,0.15h-7.88V42.2z M242.61,25.57v13.76c0,0.73,0.03,1.18,0.11,1.34c0.06,0.16,0.18,0.29,0.36,0.38
				c0.24,0.13,0.57,0.19,1.01,0.19c1.44,0,2.56-0.5,3.32-1.49c1.04-1.34,1.56-3.41,1.56-6.22c0-2.26-0.36-4.08-1.07-5.42
				c-0.56-1.06-1.28-1.78-2.17-2.16C245.09,25.68,244.06,25.56,242.61,25.57z"/>
			<path class="st4" d="M255.39,24.56h9.1v0.49h-0.45c-0.69,0-1.15,0.08-1.41,0.22c-0.26,0.14-0.44,0.35-0.55,0.59
				c-0.11,0.25-0.16,0.88-0.16,1.89v8.64c0,1.57,0.12,2.62,0.36,3.14c0.24,0.51,0.64,0.94,1.18,1.27c0.55,0.33,1.24,0.51,2.07,0.51
				c0.95,0,1.77-0.22,2.44-0.65c0.67-0.43,1.18-1.02,1.51-1.78s0.5-2.07,0.5-3.94v-7.19c0-0.79-0.09-1.35-0.25-1.69
				c-0.16-0.33-0.38-0.57-0.63-0.7c-0.39-0.19-0.94-0.3-1.65-0.3v-0.49h6.1v0.49h-0.37c-0.5,0-0.91,0.1-1.24,0.3
				c-0.33,0.2-0.57,0.5-0.71,0.89c-0.11,0.28-0.17,0.78-0.17,1.5v6.7c0,2.07-0.14,3.57-0.41,4.49c-0.27,0.92-0.94,1.77-1.99,2.53
				c-1.06,0.78-2.5,1.15-4.33,1.15c-1.53,0-2.71-0.2-3.54-0.61c-1.13-0.55-1.94-1.26-2.4-2.14c-0.46-0.86-0.7-2.04-0.7-3.49v-8.64
				c0-1.01-0.05-1.65-0.17-1.89c-0.11-0.25-0.31-0.44-0.58-0.59c-0.28-0.15-0.79-0.22-1.53-0.2v-0.49H255.39z"/>
			<path class="st4" d="M286.52,24.16l0.14,5.88h-0.53c-0.25-1.48-0.87-2.66-1.85-3.56c-0.98-0.89-2.05-1.35-3.19-1.35
				c-0.88,0-1.59,0.24-2.1,0.71c-0.52,0.47-0.78,1.01-0.78,1.63c0,0.39,0.09,0.73,0.27,1.04c0.25,0.41,0.66,0.81,1.21,1.21
				c0.41,0.28,1.35,0.8,2.83,1.52c2.06,1.01,3.46,1.97,4.17,2.88c0.71,0.91,1.07,1.93,1.07,3.09c0,1.48-0.57,2.74-1.73,3.81
				c-1.15,1.07-2.61,1.6-4.38,1.6c-0.55,0-1.08-0.05-1.57-0.17c-0.5-0.11-1.11-0.32-1.85-0.64c-0.42-0.17-0.75-0.26-1.02-0.26
				c-0.23,0-0.46,0.09-0.71,0.26c-0.25,0.17-0.45,0.44-0.61,0.8h-0.49v-6.66h0.49c0.38,1.88,1.11,3.3,2.21,4.28
				c1.09,0.98,2.26,1.48,3.52,1.48c0.97,0,1.75-0.27,2.32-0.8c0.57-0.53,0.86-1.14,0.86-1.84c0-0.42-0.11-0.82-0.33-1.21
				c-0.23-0.39-0.56-0.77-1-1.11c-0.45-0.36-1.25-0.81-2.39-1.37c-1.61-0.79-2.76-1.46-3.46-2.02c-0.7-0.55-1.24-1.18-1.62-1.85
				c-0.38-0.68-0.57-1.43-0.57-2.26c0-1.4,0.52-2.6,1.55-3.59c1.04-0.99,2.33-1.48,3.9-1.48c0.57,0,1.12,0.06,1.66,0.2
				c0.41,0.11,0.91,0.3,1.49,0.58c0.58,0.28,0.99,0.42,1.23,0.42c0.23,0,0.4-0.06,0.53-0.2c0.13-0.14,0.25-0.47,0.37-1L286.52,24.16
				z"/>
			<path class="st4" d="M305.62,24.56v4.78h-0.46c-0.28-1.1-0.58-1.89-0.93-2.37c-0.33-0.49-0.8-0.86-1.39-1.15
				c-0.33-0.15-0.91-0.24-1.73-0.24h-1.32v13.61c0,0.91,0.05,1.47,0.15,1.69c0.1,0.23,0.29,0.42,0.58,0.59
				c0.29,0.17,0.69,0.26,1.19,0.26h0.58v0.49h-9.23v-0.49h0.58c0.51,0,0.93-0.09,1.24-0.27c0.23-0.12,0.4-0.33,0.53-0.63
				c0.1-0.2,0.14-0.75,0.14-1.64V25.58h-1.27c-1.19,0-2.05,0.25-2.59,0.75c-0.75,0.7-1.23,1.7-1.43,3.01h-0.5v-4.78H305.62z"/>
			<path class="st4" d="M313.66,34.16v4.94c0,0.95,0.05,1.55,0.17,1.8s0.32,0.44,0.61,0.59c0.29,0.15,0.84,0.22,1.65,0.22v0.49
				h-9.03v-0.49c0.82,0,1.37-0.08,1.66-0.23c0.29-0.15,0.5-0.35,0.61-0.59c0.12-0.25,0.17-0.84,0.17-1.79V27.66
				c0-0.95-0.05-1.55-0.17-1.8c-0.12-0.25-0.32-0.44-0.61-0.59s-0.84-0.22-1.65-0.22v-0.49h8.19c2.14,0,3.7,0.15,4.68,0.44
				c0.99,0.29,1.79,0.84,2.42,1.63c0.63,0.8,0.94,1.73,0.94,2.79c0,1.3-0.46,2.37-1.4,3.22c-0.6,0.54-1.43,0.94-2.51,1.21l4.24,5.97
				c0.55,0.78,0.95,1.25,1.19,1.44c0.36,0.27,0.77,0.42,1.24,0.44v0.49h-5.55l-5.68-8.03h-1.16V34.16z M313.66,25.51v7.72h0.74
				c1.21,0,2.1-0.11,2.71-0.33c0.59-0.22,1.07-0.61,1.41-1.2c0.35-0.57,0.52-1.33,0.52-2.25c0-1.35-0.31-2.34-0.95-2.98
				c-0.63-0.64-1.64-0.96-3.04-0.96L313.66,25.51z"/>
			<path class="st4" d="M335.57,41.72v0.49h-9.22v-0.49h0.58c0.51,0,0.93-0.09,1.24-0.27c0.23-0.12,0.4-0.33,0.52-0.63
				c0.1-0.2,0.14-0.75,0.14-1.64v-11.6c0-0.91-0.04-1.47-0.14-1.69c-0.1-0.23-0.29-0.42-0.58-0.59c-0.29-0.17-0.68-0.26-1.18-0.26
				h-0.58v-0.49h9.22v0.49h-0.58c-0.51,0-0.93,0.09-1.24,0.27c-0.23,0.12-0.4,0.33-0.53,0.63c-0.1,0.2-0.14,0.75-0.14,1.64v11.6
				c0,0.91,0.05,1.47,0.15,1.69c0.1,0.23,0.29,0.42,0.58,0.59c0.29,0.17,0.68,0.26,1.18,0.26H335.57z"/>
			<path class="st4" d="M350.17,25.58v7.25h0.51c0.78,0,1.41-0.12,1.91-0.36s0.92-0.63,1.25-1.19c0.35-0.55,0.57-1.3,0.67-2.25h0.45
				v8.85h-0.45c-0.16-1.67-0.61-2.78-1.35-3.31s-1.56-0.8-2.49-0.8h-0.51v5.4c0,0.91,0.05,1.47,0.15,1.69
				c0.1,0.23,0.29,0.42,0.58,0.59c0.29,0.17,0.68,0.26,1.18,0.26h0.58v0.49h-9.22v-0.49h0.58c0.51,0,0.93-0.09,1.24-0.27
				c0.23-0.12,0.4-0.33,0.52-0.63c0.1-0.2,0.14-0.75,0.14-1.64v-11.6c0-0.91-0.04-1.47-0.14-1.69c-0.1-0.23-0.29-0.42-0.58-0.59
				c-0.29-0.17-0.68-0.26-1.18-0.26h-0.58v-0.49h14.88v5.06h-0.53c-0.12-1.19-0.43-2.07-0.93-2.64c-0.5-0.57-1.22-0.97-2.17-1.21
				c-0.52-0.13-1.48-0.19-2.89-0.19h-1.63V25.58z"/>
			<path class="st4" d="M359.74,24.56h9.1v0.49h-0.45c-0.69,0-1.15,0.08-1.41,0.22c-0.26,0.14-0.44,0.35-0.55,0.59
				c-0.11,0.25-0.16,0.88-0.16,1.89v8.64c0,1.57,0.12,2.62,0.36,3.14c0.24,0.51,0.64,0.94,1.18,1.27c0.55,0.33,1.24,0.51,2.07,0.51
				c0.95,0,1.77-0.22,2.44-0.65c0.67-0.43,1.18-1.02,1.51-1.78c0.33-0.75,0.5-2.07,0.5-3.94v-7.19c0-0.79-0.09-1.35-0.25-1.69
				c-0.16-0.33-0.38-0.57-0.63-0.7c-0.39-0.19-0.94-0.3-1.65-0.3v-0.49h6.1v0.49h-0.37c-0.5,0-0.91,0.1-1.24,0.3
				c-0.33,0.2-0.57,0.5-0.71,0.89c-0.12,0.28-0.17,0.78-0.17,1.5v6.7c0,2.07-0.14,3.57-0.41,4.49c-0.27,0.92-0.94,1.77-1.99,2.53
				c-1.06,0.78-2.5,1.15-4.33,1.15c-1.53,0-2.71-0.2-3.54-0.61c-1.13-0.55-1.94-1.26-2.4-2.14c-0.46-0.86-0.7-2.04-0.7-3.49v-8.64
				c0-1.01-0.05-1.65-0.17-1.89c-0.11-0.25-0.31-0.44-0.58-0.59c-0.28-0.15-0.79-0.22-1.53-0.2v-0.49H359.74z"/>
			<path class="st4" d="M385.43,34.16v4.94c0,0.95,0.05,1.55,0.17,1.8s0.32,0.44,0.61,0.59c0.29,0.15,0.84,0.22,1.65,0.22v0.49
				h-9.03v-0.49c0.82,0,1.37-0.08,1.66-0.23c0.29-0.15,0.5-0.35,0.61-0.59c0.12-0.25,0.17-0.84,0.17-1.79V27.66
				c0-0.95-0.05-1.55-0.17-1.8c-0.12-0.25-0.32-0.44-0.61-0.59c-0.29-0.15-0.84-0.22-1.65-0.22v-0.49h8.19
				c2.14,0,3.7,0.15,4.68,0.44c0.99,0.29,1.79,0.84,2.42,1.63c0.63,0.8,0.94,1.73,0.94,2.79c0,1.3-0.46,2.37-1.4,3.22
				c-0.6,0.54-1.43,0.94-2.51,1.21l4.24,5.97c0.55,0.78,0.95,1.25,1.19,1.44c0.36,0.27,0.77,0.42,1.24,0.44v0.49h-5.55l-5.68-8.03
				h-1.16V34.16z M385.43,25.51v7.72h0.74c1.21,0,2.1-0.11,2.71-0.33c0.59-0.22,1.07-0.61,1.41-1.2c0.35-0.57,0.52-1.33,0.52-2.25
				c0-1.35-0.31-2.34-0.95-2.98c-0.63-0.64-1.64-0.96-3.04-0.96L385.43,25.51z"/>
			<path class="st4" d="M404.23,24.56l8.7,10.93v-7.58c0-1.06-0.15-1.77-0.45-2.15c-0.42-0.51-1.11-0.74-2.09-0.73v-0.49h5.82v0.49
				c-0.74,0.1-1.25,0.22-1.5,0.37c-0.26,0.15-0.45,0.4-0.6,0.74s-0.22,0.93-0.22,1.76v14.69h-0.44l-11.93-14.69v11.21
				c0,1.01,0.24,1.7,0.7,2.06c0.46,0.36,0.99,0.53,1.6,0.53h0.42v0.49h-6.25v-0.49c0.97-0.01,1.65-0.2,2.03-0.59
				s0.57-1.06,0.57-1.99V26.69l-0.38-0.46c-0.38-0.46-0.7-0.78-0.99-0.93c-0.29-0.15-0.7-0.23-1.24-0.25v-0.49L404.23,24.56z"/>
			<path class="st4" d="M426.58,41.72v0.49h-9.22v-0.49h0.58c0.51,0,0.93-0.09,1.24-0.27c0.23-0.12,0.4-0.33,0.52-0.63
				c0.1-0.2,0.14-0.75,0.14-1.64v-11.6c0-0.91-0.04-1.47-0.14-1.69c-0.1-0.23-0.29-0.42-0.58-0.59c-0.29-0.17-0.68-0.26-1.18-0.26
				h-0.58v-0.49h9.22v0.49H426c-0.51,0-0.93,0.09-1.24,0.27c-0.23,0.12-0.4,0.33-0.53,0.63c-0.1,0.2-0.14,0.75-0.14,1.64v11.6
				c0,0.91,0.05,1.47,0.15,1.69c0.1,0.23,0.29,0.42,0.58,0.59c0.29,0.17,0.68,0.26,1.18,0.26H426.58z"/>
			<path class="st4" d="M443.99,24.56v4.78h-0.46c-0.28-1.1-0.58-1.89-0.93-2.37c-0.33-0.49-0.8-0.86-1.39-1.15
				c-0.33-0.15-0.91-0.24-1.73-0.24h-1.32v13.61c0,0.91,0.05,1.47,0.15,1.69c0.1,0.23,0.29,0.42,0.58,0.59
				c0.29,0.17,0.69,0.26,1.19,0.26h0.58v0.49h-9.23v-0.49h0.58c0.51,0,0.93-0.09,1.24-0.27c0.23-0.12,0.4-0.33,0.53-0.63
				c0.1-0.2,0.14-0.75,0.14-1.64V25.58h-1.27c-1.19,0-2.05,0.25-2.59,0.75c-0.75,0.7-1.23,1.7-1.43,3.01h-0.5v-4.78H443.99z"/>
			<path class="st4" d="M445.58,24.56h9.1v0.49h-0.45c-0.69,0-1.15,0.08-1.41,0.22c-0.26,0.14-0.44,0.35-0.55,0.59
				c-0.11,0.25-0.16,0.88-0.16,1.89v8.64c0,1.57,0.12,2.62,0.36,3.14c0.24,0.52,0.64,0.94,1.18,1.27c0.55,0.33,1.24,0.51,2.07,0.51
				c0.95,0,1.77-0.22,2.44-0.65c0.67-0.43,1.18-1.02,1.51-1.78s0.5-2.07,0.5-3.94v-7.19c0-0.79-0.09-1.35-0.25-1.69
				c-0.16-0.33-0.38-0.57-0.63-0.7c-0.39-0.19-0.94-0.3-1.65-0.3v-0.49h6.1v0.49h-0.37c-0.5,0-0.91,0.1-1.24,0.3
				c-0.33,0.19-0.57,0.5-0.71,0.89c-0.12,0.28-0.17,0.78-0.17,1.5v6.7c0,2.07-0.14,3.57-0.41,4.49c-0.27,0.92-0.94,1.77-1.99,2.53
				c-1.06,0.78-2.5,1.15-4.33,1.15c-1.53,0-2.71-0.2-3.54-0.61c-1.13-0.55-1.94-1.26-2.4-2.14c-0.46-0.86-0.7-2.04-0.7-3.49v-8.64
				c0-1.01-0.05-1.65-0.17-1.89c-0.11-0.25-0.31-0.44-0.58-0.59c-0.28-0.15-0.79-0.22-1.53-0.2v-0.49H445.58z"/>
			<path class="st4" d="M471.27,34.16v4.94c0,0.95,0.05,1.55,0.17,1.8c0.12,0.25,0.32,0.44,0.61,0.59c0.29,0.15,0.84,0.22,1.65,0.22
				v0.49h-9.03v-0.49c0.82,0,1.37-0.08,1.66-0.23c0.29-0.15,0.5-0.35,0.61-0.59c0.12-0.25,0.17-0.84,0.17-1.79V27.66
				c0-0.95-0.05-1.55-0.17-1.8c-0.12-0.25-0.32-0.44-0.61-0.59s-0.84-0.22-1.65-0.22v-0.49h8.19c2.14,0,3.7,0.15,4.68,0.44
				c0.99,0.29,1.79,0.84,2.42,1.63c0.63,0.8,0.94,1.73,0.94,2.79c0,1.3-0.46,2.37-1.4,3.22c-0.6,0.54-1.43,0.94-2.51,1.21l4.24,5.97
				c0.55,0.78,0.95,1.25,1.19,1.44c0.36,0.27,0.77,0.42,1.24,0.44v0.49h-5.55l-5.68-8.03h-1.16V34.16z M471.27,25.51v7.72h0.74
				c1.21,0,2.1-0.11,2.71-0.33c0.59-0.22,1.07-0.61,1.41-1.2c0.35-0.57,0.52-1.33,0.52-2.25c0-1.35-0.31-2.34-0.95-2.98
				c-0.63-0.64-1.64-0.96-3.04-0.96L471.27,25.51z"/>
			<path class="st4" d="M490.68,25.58v7.18h0.36c1.12,0,1.93-0.36,2.44-1.06c0.51-0.7,0.82-1.74,0.96-3.11h0.5v9.23h-0.5
				c-0.11-1-0.32-1.83-0.66-2.47c-0.33-0.65-0.72-1.08-1.16-1.29c-0.44-0.23-1.09-0.33-1.93-0.33v4.97c0,0.97,0.04,1.56,0.13,1.78
				c0.09,0.22,0.24,0.4,0.46,0.53c0.23,0.13,0.59,0.2,1.09,0.2h1.06c1.65,0,2.97-0.38,3.96-1.14c0.99-0.77,1.7-1.93,2.14-3.48H500
				l-0.8,5.61h-15.25v-0.49h0.58c0.51,0,0.93-0.09,1.24-0.27c0.23-0.12,0.4-0.33,0.52-0.63c0.1-0.2,0.14-0.75,0.14-1.64V27.58
				c0-0.8-0.02-1.28-0.06-1.47c-0.09-0.3-0.25-0.54-0.49-0.7c-0.33-0.25-0.78-0.37-1.35-0.37h-0.58v-0.49h14.76v5.22h-0.5
				c-0.25-1.27-0.6-2.19-1.06-2.75c-0.45-0.55-1.1-0.96-1.93-1.22c-0.49-0.15-1.4-0.24-2.73-0.24H490.68z"/>
		</g>
		<g class="st3">
			<path class="st4" d="M270.66,74.94v0.49h-9.27v-0.49h0.59c0.52,0,0.93-0.1,1.24-0.27c0.23-0.12,0.4-0.33,0.53-0.63
				c0.1-0.2,0.14-0.75,0.14-1.65V60.72c0-0.91-0.04-1.48-0.14-1.7c-0.1-0.23-0.29-0.42-0.58-0.59c-0.29-0.17-0.69-0.26-1.19-0.26
				h-0.59v-0.49h9.27v0.49h-0.59c-0.52,0-0.93,0.09-1.24,0.27c-0.23,0.12-0.41,0.33-0.54,0.63c-0.1,0.2-0.14,0.75-0.14,1.65v11.67
				c0,0.91,0.05,1.48,0.15,1.7c0.1,0.23,0.3,0.42,0.59,0.59c0.29,0.17,0.69,0.26,1.19,0.26h0.58V74.94z"/>
			<path class="st4" d="M277.95,57.68l8.76,11v-7.62c0-1.07-0.15-1.78-0.46-2.16c-0.42-0.51-1.12-0.75-2.1-0.73v-0.49h5.86v0.49
				c-0.75,0.1-1.25,0.22-1.51,0.38c-0.26,0.15-0.46,0.4-0.6,0.74c-0.14,0.35-0.22,0.94-0.22,1.77v14.77h-0.44l-12-14.77v11.28
				c0,1.02,0.24,1.71,0.7,2.07c0.46,0.36,1,0.54,1.61,0.54h0.42v0.49h-6.3v-0.49c0.98-0.01,1.66-0.2,2.04-0.6
				c0.39-0.39,0.57-1.06,0.57-2.01V59.81l-0.38-0.47c-0.38-0.47-0.71-0.78-0.99-0.93c-0.29-0.15-0.7-0.23-1.24-0.25v-0.49H277.95z"
				/>
			<path class="st4" d="M290.97,75.42v-0.49h0.59c0.52,0,0.91-0.08,1.19-0.24c0.27-0.16,0.47-0.38,0.6-0.66
				c0.08-0.18,0.12-0.73,0.12-1.65V60.72c0-0.91-0.04-1.48-0.14-1.7c-0.1-0.23-0.29-0.42-0.58-0.59c-0.29-0.17-0.69-0.26-1.19-0.26
				h-0.59v-0.49h7.94c2.12,0,3.83,0.29,5.11,0.86c1.57,0.71,2.77,1.78,3.59,3.2c0.82,1.43,1.22,3.05,1.22,4.85
				c0,1.25-0.2,2.39-0.6,3.45c-0.4,1.05-0.92,1.92-1.55,2.6c-0.64,0.69-1.37,1.23-2.2,1.65c-0.83,0.41-1.85,0.73-3.05,0.96
				c-0.53,0.11-1.37,0.16-2.51,0.16H290.97z M297.74,58.69v13.85c0,0.73,0.03,1.19,0.11,1.35c0.06,0.16,0.18,0.29,0.36,0.38
				c0.24,0.13,0.57,0.19,1.02,0.19c1.46,0,2.57-0.5,3.33-1.49c1.05-1.35,1.57-3.43,1.57-6.25c0-2.28-0.36-4.1-1.07-5.46
				c-0.57-1.07-1.29-1.79-2.19-2.17C300.24,58.81,299.19,58.68,297.74,58.69z"/>
			<path class="st4" d="M320.31,57.43c2.83-0.11,5.12,0.72,6.89,2.47c1.77,1.76,2.65,3.95,2.65,6.58c0,2.25-0.66,4.23-1.97,5.94
				c-1.75,2.26-4.21,3.4-7.39,3.4c-3.19,0-5.66-1.08-7.41-3.25c-1.38-1.71-2.07-3.74-2.07-6.08c0-2.63,0.89-4.83,2.68-6.59
				C315.49,58.15,317.71,57.33,320.31,57.43z M320.48,58.27c-1.62,0-2.86,0.83-3.7,2.49c-0.69,1.36-1.04,3.31-1.04,5.87
				c0,3.03,0.53,5.26,1.6,6.71c0.74,1.01,1.78,1.52,3.12,1.52c0.89,0,1.65-0.22,2.25-0.66c0.77-0.56,1.37-1.44,1.79-2.67
				c0.43-1.23,0.65-2.83,0.65-4.8c0-2.35-0.22-4.1-0.66-5.26c-0.43-1.16-0.99-1.98-1.67-2.47
				C322.14,58.51,321.36,58.27,320.48,58.27z"/>
			<path class="st4" d="M337.48,57.68l8.76,11v-7.62c0-1.07-0.15-1.78-0.46-2.16c-0.42-0.51-1.12-0.75-2.1-0.73v-0.49h5.86v0.49
				c-0.75,0.1-1.25,0.22-1.51,0.38c-0.26,0.15-0.46,0.4-0.6,0.74c-0.14,0.35-0.22,0.94-0.22,1.77v14.77h-0.44l-12-14.77v11.28
				c0,1.02,0.24,1.71,0.7,2.07c0.46,0.36,1,0.54,1.61,0.54h0.42v0.49h-6.3v-0.49c0.98-0.01,1.66-0.2,2.04-0.6
				c0.39-0.39,0.57-1.06,0.57-2.01V59.81l-0.38-0.47c-0.38-0.47-0.71-0.78-0.99-0.93c-0.29-0.15-0.7-0.23-1.24-0.25v-0.49H337.48z"
				/>
			<path class="st4" d="M357.46,58.7v7.22h0.36c1.12,0,1.94-0.36,2.45-1.06c0.51-0.71,0.83-1.75,0.97-3.13h0.5v9.28h-0.5
				c-0.11-1.01-0.32-1.84-0.66-2.48c-0.33-0.65-0.72-1.08-1.18-1.3c-0.44-0.23-1.09-0.33-1.94-0.33v4.99c0,0.98,0.04,1.57,0.13,1.79
				c0.09,0.22,0.24,0.4,0.46,0.54c0.23,0.14,0.59,0.2,1.1,0.2h1.06c1.66,0,2.99-0.39,3.98-1.15c1-0.77,1.71-1.94,2.16-3.5h0.49
				l-0.8,5.64H350.7v-0.49h0.59c0.52,0,0.93-0.1,1.24-0.27c0.23-0.12,0.4-0.33,0.53-0.63c0.1-0.2,0.14-0.75,0.14-1.65V60.72
				c0-0.8-0.02-1.29-0.06-1.48c-0.09-0.3-0.25-0.54-0.49-0.7c-0.33-0.25-0.79-0.37-1.36-0.37h-0.59v-0.49h14.85v5.24h-0.5
				c-0.25-1.28-0.6-2.2-1.07-2.76c-0.45-0.56-1.1-0.97-1.94-1.23c-0.49-0.16-1.4-0.24-2.75-0.24L357.46,58.7z"/>
			<path class="st4" d="M380.61,57.28l0.14,5.91h-0.54c-0.26-1.48-0.87-2.67-1.87-3.58c-0.99-0.91-2.06-1.36-3.21-1.36
				c-0.89,0-1.6,0.24-2.11,0.71c-0.52,0.47-0.78,1.02-0.78,1.64c0,0.39,0.1,0.74,0.28,1.05c0.25,0.41,0.66,0.82,1.22,1.22
				c0.41,0.29,1.36,0.8,2.84,1.53c2.07,1.02,3.47,1.98,4.19,2.89c0.71,0.91,1.07,1.94,1.07,3.12c0,1.49-0.58,2.76-1.74,3.83
				c-1.15,1.07-2.62,1.61-4.4,1.61c-0.56,0-1.09-0.05-1.59-0.17s-1.12-0.32-1.87-0.64c-0.42-0.17-0.77-0.26-1.04-0.26
				c-0.23,0-0.46,0.09-0.72,0.26c-0.25,0.17-0.45,0.44-0.61,0.8h-0.49v-6.7h0.49c0.39,1.89,1.12,3.32,2.22,4.31
				c1.1,0.99,2.28,1.49,3.54,1.49c0.98,0,1.76-0.27,2.34-0.8s0.87-1.15,0.87-1.85c0-0.42-0.11-0.82-0.33-1.22
				c-0.23-0.39-0.56-0.77-1.01-1.12c-0.45-0.36-1.25-0.81-2.4-1.38c-1.62-0.8-2.77-1.47-3.48-2.03c-0.7-0.56-1.25-1.19-1.63-1.88
				c-0.38-0.69-0.57-1.44-0.57-2.28c0-1.41,0.52-2.62,1.55-3.61s2.35-1.49,3.92-1.49c0.57,0,1.13,0.06,1.67,0.2
				c0.41,0.11,0.91,0.3,1.5,0.58c0.59,0.28,1,0.42,1.24,0.42c0.23,0,0.41-0.06,0.54-0.2c0.13-0.14,0.25-0.47,0.37-1H380.61z"/>
			<path class="st4" d="M392.74,74.94v0.49h-9.27v-0.49h0.59c0.52,0,0.93-0.1,1.24-0.27c0.23-0.12,0.4-0.33,0.53-0.63
				c0.1-0.2,0.14-0.75,0.14-1.65V60.72c0-0.91-0.04-1.48-0.14-1.7c-0.1-0.23-0.29-0.42-0.58-0.59c-0.29-0.17-0.69-0.26-1.19-0.26
				h-0.59v-0.49h9.27v0.49h-0.59c-0.52,0-0.93,0.09-1.24,0.27c-0.23,0.12-0.41,0.33-0.54,0.63c-0.1,0.2-0.14,0.75-0.14,1.65v11.67
				c0,0.91,0.05,1.48,0.15,1.7c0.1,0.23,0.29,0.42,0.59,0.59c0.29,0.17,0.69,0.26,1.19,0.26h0.58V74.94z"/>
			<path class="st4" d="M404.5,70.37h-6.26l-0.74,1.73c-0.25,0.57-0.37,1.05-0.37,1.42c0,0.5,0.2,0.86,0.6,1.1
				c0.24,0.14,0.82,0.25,1.74,0.31v0.49h-5.9v-0.49c0.64-0.1,1.16-0.36,1.57-0.79c0.41-0.43,0.92-1.33,1.52-2.67L403,57.31h0.25
				l6.39,14.55c0.61,1.38,1.11,2.24,1.51,2.6c0.29,0.27,0.71,0.43,1.25,0.47v0.49h-8.58v-0.49h0.36c0.69,0,1.18-0.1,1.46-0.29
				c0.19-0.14,0.29-0.35,0.29-0.6c0-0.16-0.02-0.32-0.08-0.49c-0.02-0.08-0.15-0.41-0.39-0.98L404.5,70.37z M404.05,69.4l-2.64-6.11
				l-2.72,6.11H404.05z"/>
		</g>
	</g>
</g>
</svg>
